# xmcd CD database file
#
# Track frame offsets:
#	187
#	18212
#	32412
#	48122
#	64465
#	77385
#	97100
#	110582
#	126520
#	141205
#	161772
#	175960
#
# Disc length: 2559 seconds
#
# Revision: 0
# Processed by: cddbd v1.5.1PL0 Copyright (c) Steve Scherf et al.
# Submitted via: CDex 1.51
#
DISCID=9e09fd0c
DTITLE=金子由香利 - 巴里の屋根の下
DYEAR=1900
DGENRE=Chanson
TTITLE0=巴里の屋根の下
TTITLE1=待ちましょう
TTITLE2=桜んぼの実る頃
TTITLE3=街
TTITLE4=真夜中の居酒屋
TTITLE5=フレデ
TTITLE6=サンジャンの私の恋人
TTITLE7=今、いずこ
TTITLE8=青いジャバ
TTITLE9=暗い日曜日
TTITLE10=眼を閉じて
TTITLE11=アデュー
EXTD=
EXTT0=
EXTT1=
EXTT2=
EXTT3=
EXTT4=
EXTT5=
EXTT6=
EXTT7=
EXTT8=
EXTT9=
EXTT10=
EXTT11=
PLAYORDER=
